<?xml version="1.0" standalone="no"?>
<!DOCTYPE svg PUBLIC "-//W3C//DTD SVG 20010904//EN"
 "http://www.w3.org/TR/2001/REC-SVG-20010904/DTD/svg10.dtd">
<svg version="1.0" xmlns="http://www.w3.org/2000/svg"
 width="200.000000pt" height="200.000000pt" viewBox="0 0 200.000000 200.000000"
 preserveAspectRatio="xMidYMid meet">
<metadata>
Created by potrace 1.11, written by Peter Selinger 2001-2013
</metadata>
<g transform="translate(0.000000,200.000000) scale(0.100000,-0.100000)"
fill="#000000" stroke="none">
<path d="M224 1531 c-60 -24 -92 -48 -109 -81 -14 -26 -15 -86 -13 -446 l3
-416 36 -32 c79 -68 51 -66 857 -65 693 0 730 1 782 19 36 13 66 33 88 57 l33
37 -3 424 -3 424 -37 33 c-76 65 -55 64 -863 63 -651 0 -734 -2 -771 -17z"/>
</g>
</svg>
